<?xml version="1.0" standalone="no"?>
<!DOCTYPE svg PUBLIC "-//W3C//DTD SVG 20010904//EN"
 "http://www.w3.org/TR/2001/REC-SVG-20010904/DTD/svg10.dtd">
<svg version="1.0" xmlns="http://www.w3.org/2000/svg"
 width="1728.000000pt" height="1596.000000pt" viewBox="0 0 1728.000000 1596.000000"
 preserveAspectRatio="xMidYMid meet">
<metadata>
Created by potrace 1.15, written by Peter Selinger 2001-2017
</metadata>
<g transform="translate(0.000000,1596.000000) scale(0.100000,-0.100000)"
fill="#000000" stroke="none">
<path d="M0 7980 l0 -7980 8640 0 8640 0 0 7980 0 7980 -8640 0 -8640 0 0
-7980z m7710 5176 c0 -6 18 -27 40 -46 22 -19 40 -43 40 -52 0 -22 23 -23 40
-3 16 19 39 19 46 0 9 -22 -15 -145 -32 -169 -20 -29 -17 -54 8 -62 15 -4 25
-1 35 12 13 18 17 13 14 -17 -1 -8 11 -22 26 -30 15 -8 33 -21 39 -29 16 -20
114 -41 136 -29 12 6 25 6 35 0 9 -5 26 -5 38 -1 26 10 41 2 47 -25 2 -12 10
-18 19 -16 21 6 42 5 63 -4 14 -6 17 -5 12 3 -8 13 -6 14 36 16 15 1 24 -2 21
-7 -3 -5 5 -6 18 -2 22 7 23 6 9 -9 -13 -16 -11 -18 31 -16 24 1 49 1 54 0 10
-3 32 -5 73 -8 12 -1 22 -9 22 -18 0 -12 12 -14 71 -11 38 2 72 0 75 -5 3 -5
38 -8 77 -7 94 2 94 2 100 -19 2 -11 17 -21 33 -25 16 -3 39 -15 52 -27 12
-12 28 -19 35 -17 18 6 49 -12 41 -25 -5 -8 -1 -9 11 -4 20 7 60 -27 50 -44
-3 -6 -1 -10 6 -10 17 0 38 -31 39 -56 0 -27 35 -64 60 -64 11 0 20 -4 20 -10
0 -17 48 -11 58 6 8 15 11 15 29 -3 14 -14 25 -18 36 -11 24 13 80 -40 80 -75
0 -15 3 -27 7 -27 14 0 45 -152 33 -164 -12 -12 -18 -201 -8 -272 12 -94 26
-154 36 -154 6 0 7 -5 4 -10 -4 -6 -2 -16 3 -23 7 -8 6 -38 -5 -92 -8 -44 -17
-93 -20 -110 -7 -44 -34 -93 -55 -98 -10 -3 -16 -1 -12 4 3 5 -8 9 -25 9 -16
0 -62 16 -101 36 -81 40 -164 58 -180 39 -8 -9 -6 -14 5 -19 8 -3 15 -12 15
-21 0 -17 -16 -20 -25 -5 -12 20 -25 9 -25 -20 0 -30 0 -30 -53 -27 -29 2 -59
7 -67 12 -9 5 -15 4 -18 -3 -2 -7 -10 -19 -18 -26 -8 -8 -14 -19 -14 -25 0
-15 -27 -20 -145 -25 -60 -3 -155 -10 -210 -16 -55 -6 -123 -8 -152 -4 -40 5
-58 2 -82 -12 -17 -10 -31 -24 -31 -30 0 -21 -50 -26 -77 -9 -23 15 -26 15
-39 -2 -7 -10 -14 -31 -14 -46 0 -24 3 -27 20 -22 23 7 26 -10 10 -47 -6 -13
-16 -52 -23 -87 -10 -48 -18 -65 -31 -67 -22 -3 -45 -34 -39 -51 3 -7 8 -11
13 -8 4 2 13 -7 20 -21 12 -21 12 -34 -2 -84 -15 -57 -14 -110 3 -110 5 0 6
-8 2 -17 -5 -14 0 -13 20 5 17 16 32 22 45 18 14 -5 25 0 36 15 9 13 21 19 30
16 10 -4 34 13 68 49 53 56 164 144 181 144 5 0 6 -13 2 -29 -4 -21 -2 -30 10
-35 15 -5 15 -9 -2 -37 -25 -43 -83 -102 -129 -133 -57 -37 -80 -58 -94 -85
-11 -21 -10 -26 6 -38 28 -21 57 -17 49 7 -4 14 -2 20 9 20 9 0 23 14 31 31
22 42 157 129 200 129 36 0 45 -13 45 -60 0 -40 17 -80 44 -105 13 -12 25 -27
27 -33 2 -7 19 -16 37 -21 26 -8 34 -7 39 5 5 13 8 13 22 1 23 -21 78 -36 146
-42 33 -2 60 -5 60 -6 0 -1 9 -3 20 -4 11 -2 29 -6 39 -11 14 -5 17 -4 11 5
-13 22 58 1 74 -21 10 -16 21 -19 50 -15 99 13 230 68 233 96 1 9 2 24 2 34 1
10 8 22 16 27 8 5 11 10 6 10 -4 0 -1 11 8 25 15 23 15 27 -10 79 -14 30 -33
57 -42 60 -9 3 -30 14 -47 25 -16 11 -40 20 -53 20 -13 1 -31 5 -40 10 -22 11
-223 20 -216 9 3 -4 1 -8 -5 -8 -5 0 -13 9 -16 20 -4 12 -15 20 -29 20 -13 0
-31 -9 -41 -20 -22 -24 -50 -25 -116 -4 -48 16 -59 27 -39 39 6 3 10 10 10 15
0 12 -31 21 -44 12 -18 -13 -56 -12 -56 2 0 13 -29 44 -42 45 -5 1 -18 1 -29
1 -17 0 -19 3 -10 14 7 8 32 14 66 14 30 0 78 7 107 15 54 15 119 21 350 33
114 6 131 4 155 -12 41 -27 74 -44 87 -44 6 0 26 -14 45 -30 18 -17 46 -37 63
-46 41 -21 52 -30 110 -87 26 -27 46 -53 42 -58 -3 -6 0 -18 8 -27 49 -60 72
-176 51 -260 -19 -76 -34 -172 -28 -182 3 -4 -2 -13 -10 -20 -9 -8 -13 -21 -9
-32 3 -10 -1 -29 -9 -41 -14 -22 -17 -82 -5 -102 9 -16 8 -283 -1 -350 -5 -33
-6 -66 -2 -73 16 -29 -29 -260 -59 -303 -20 -29 -70 -216 -70 -263 0 -18 -4
-36 -8 -41 -5 -6 -14 -30 -21 -54 -7 -25 -26 -72 -42 -105 -16 -33 -29 -65
-29 -73 0 -7 -4 -13 -10 -13 -5 0 -10 -15 -10 -32 -1 -18 -9 -51 -20 -73 -11
-22 -19 -46 -20 -53 0 -13 -7 -31 -38 -102 -6 -14 -27 -52 -47 -85 -19 -33
-49 -89 -67 -125 -31 -64 -104 -172 -120 -178 -4 -2 -8 -7 -8 -12 0 -4 -37
-46 -82 -93 -151 -154 -307 -322 -330 -352 -38 -49 -62 -77 -86 -99 -13 -12
-43 -38 -65 -59 -23 -21 -63 -50 -89 -65 -27 -15 -48 -31 -48 -37 0 -12 -58
-48 -80 -51 -8 -1 -35 -9 -60 -19 -25 -9 -67 -23 -95 -31 -27 -8 -83 -28 -124
-45 -40 -17 -82 -28 -92 -26 -10 3 -47 -4 -81 -15 -38 -11 -78 -18 -100 -15
-25 3 -50 -1 -75 -14 -45 -23 -109 -24 -195 -5 -35 8 -83 16 -108 17 -25 2
-61 12 -80 23 -42 25 -93 50 -140 69 -19 8 -93 58 -165 112 -71 53 -135 99
-141 102 -6 2 -24 26 -38 54 -15 27 -34 49 -42 49 -21 0 -71 58 -101 117 -14
29 -48 78 -75 110 -28 32 -74 90 -104 128 -113 146 -141 179 -162 186 -12 5
-22 13 -22 19 0 5 -10 10 -22 10 -24 0 -52 36 -75 99 -7 19 -20 42 -27 50 -17
19 -58 108 -62 136 -12 72 -16 85 -24 85 -6 0 -9 3 -8 8 3 14 -22 62 -32 62
-6 0 -9 3 -6 8 8 13 -12 161 -27 194 -24 55 -36 91 -43 133 -4 22 -10 45 -14
50 -4 6 -10 28 -13 50 -6 46 -20 93 -37 124 -12 24 -41 131 -60 226 -16 79
-21 149 -25 400 -2 116 -5 219 -6 230 -1 11 1 44 4 73 3 30 -1 76 -9 105 -10
37 -10 54 -2 64 12 15 -5 117 -24 140 -5 7 -7 51 -4 105 9 129 15 167 37 202
11 17 25 43 31 59 7 15 16 27 20 27 4 0 8 9 8 19 0 11 9 23 22 27 28 9 71 59
83 100 11 34 59 79 143 133 l51 32 132 -5 c73 -4 161 -11 196 -16 35 -6 67 -8
72 -6 4 3 22 -4 39 -15 18 -10 41 -19 52 -19 13 0 18 -6 15 -19 -2 -12 5 -22
21 -30 28 -12 24 -32 -5 -26 -11 2 -27 -3 -38 -10 -12 -9 -34 -12 -64 -8 -25
3 -55 1 -66 -6 -12 -6 -38 -12 -59 -15 -86 -10 -161 -17 -197 -20 -25 -2 -57
-17 -93 -42 -30 -22 -66 -45 -79 -52 -14 -7 -25 -22 -25 -33 0 -10 -6 -19 -14
-19 -10 0 -13 -15 -12 -59 1 -72 17 -92 89 -115 28 -9 69 -28 89 -43 33 -22
44 -25 85 -18 27 4 66 8 88 10 65 4 66 5 61 13 -2 4 11 6 30 4 37 -5 54 -20
34 -32 -9 -6 -7 -11 9 -19 15 -8 21 -9 21 -1 0 6 4 9 9 5 5 -3 12 -1 16 5 3 5
17 10 30 10 23 0 42 16 32 26 -3 3 -20 8 -39 10 -50 7 -173 53 -194 73 -15 13
-19 31 -18 72 l0 54 55 27 c30 15 67 30 83 34 l29 7 -7 -44 c-9 -60 11 -120
59 -180 l40 -49 89 6 c84 6 92 8 132 42 49 41 60 64 70 145 4 35 11 57 19 57
44 0 215 -113 215 -142 0 -4 9 -12 20 -18 19 -10 19 -9 8 17 -6 15 -19 35 -27
43 -9 8 -33 36 -54 62 -34 41 -37 49 -25 65 20 27 32 26 93 -7 31 -17 62 -30
70 -30 7 0 20 -6 27 -13 39 -40 99 -17 74 28 -6 11 -14 22 -18 25 -4 3 -13 18
-21 33 -12 23 -12 33 -1 65 7 20 13 46 14 56 0 11 5 35 12 53 11 31 10 35 -21
67 -19 19 -46 40 -62 46 -16 7 -31 20 -34 30 -3 11 -26 26 -53 36 -26 9 -85
31 -132 49 -47 18 -145 47 -219 65 -74 17 -141 35 -150 39 -9 4 -31 15 -49 24
-19 9 -44 17 -57 17 -13 0 -27 5 -30 10 -3 6 -19 10 -34 10 -38 0 -65 32 -57
65 5 21 2 27 -21 36 -40 16 -124 12 -144 -7 -23 -21 -86 -43 -124 -44 -18 0
-41 10 -58 24 -24 21 -29 32 -29 73 0 36 -2 43 -9 30 -15 -25 -29 -11 -23 22
3 16 2 31 -3 34 -16 10 -2 89 16 94 26 7 47 62 32 84 -16 26 -14 39 10 95 18
40 20 55 12 86 -6 22 -6 41 -1 46 6 6 3 38 -6 83 -14 70 -11 126 8 158 9 15
-7 14 -22 -1 -8 -8 -10 -2 -5 28 3 21 7 41 9 43 2 2 -3 12 -12 22 -13 14 -14
24 -5 55 6 21 7 41 3 44 -15 11 -12 80 3 86 22 9 18 32 -6 36 -20 3 -19 6 14
43 20 22 37 43 37 48 0 4 10 7 21 7 18 0 19 -2 9 -15 -17 -21 -5 -30 22 -19
13 6 40 7 61 4 21 -4 40 -3 43 2 4 5 17 7 29 4 13 -3 26 -2 30 4 9 14 84 32
133 31 29 0 45 4 49 14 3 9 18 15 37 15 43 0 182 37 212 56 13 9 21 20 18 25
-3 5 13 8 35 7 22 -1 47 4 55 11 12 10 29 10 86 -2 39 -8 73 -11 76 -6 3 5 0
9 -7 9 -7 0 -9 3 -6 6 4 4 14 1 23 -7 14 -11 17 -10 26 5 7 13 17 16 38 11 37
-8 289 -8 367 1 44 5 67 3 78 -6 10 -8 15 -9 15 -1 0 6 18 11 44 11 41 0 44 2
50 32 8 40 -16 76 -62 97 -34 15 -42 31 -17 31 17 0 20 11 5 26 -6 6 -5 19 5
37 7 15 12 27 9 27 -3 0 4 10 16 22 14 15 16 24 9 29 -6 4 -8 12 -4 18 8 14
35 -4 35 -23z m-2465 -2230 c12 -19 44 -138 45 -168 0 -15 20 -8 20 7 0 37 29
4 66 -75 14 -30 42 -89 63 -130 41 -81 74 -180 117 -357 34 -134 29 -156 -34
-166 -42 -7 -80 -37 -47 -37 10 0 15 -3 12 -7 -4 -3 12 -18 35 -31 58 -34 106
-80 129 -124 15 -29 21 -76 30 -226 7 -104 9 -197 6 -206 -25 -65 -252 64
-272 154 -4 17 -12 30 -19 30 -18 0 -35 81 -41 195 -5 103 -12 140 -37 191
-19 37 -34 118 -49 259 -6 61 -13 112 -16 115 -2 2 -8 -2 -13 -10 -7 -11 -11
-8 -19 13 -6 16 -11 31 -11 34 0 4 -6 14 -13 22 -35 41 -101 336 -79 350 6 3
10 17 10 31 1 122 72 205 117 136z m5211 -286 c16 -14 19 -40 5 -40 -6 0 -4
-15 4 -34 14 -33 14 -37 -13 -116 -3 -8 -5 -18 -4 -21 0 -3 -3 -35 -9 -70 -5
-35 -14 -100 -20 -143 -8 -60 -17 -89 -40 -122 -35 -52 -47 -55 -56 -14 -12
61 -28 24 -33 -76 -4 -69 -13 -117 -29 -159 -40 -104 -61 -178 -66 -235 -10
-110 -36 -177 -80 -206 -14 -9 -25 -21 -25 -28 0 -20 -63 -52 -141 -71 -109
-26 -113 -23 -105 79 7 100 38 260 62 322 13 35 29 52 78 84 33 22 65 40 71
40 5 0 25 -9 43 -20 47 -29 58 -26 57 15 0 19 -3 35 -7 35 -5 0 -8 8 -8 18 0
32 -36 55 -85 56 -35 1 -45 5 -45 18 0 9 20 63 44 120 26 60 53 146 65 206 24
119 31 135 79 180 39 36 56 32 67 -20 10 -44 27 -21 32 44 5 61 12 75 71 149
72 91 67 88 70 52 2 -17 10 -37 18 -43z m-1350 -23 c12 -7 40 -29 64 -50 41
-38 48 -67 15 -67 -8 0 -23 -8 -33 -18 -17 -17 -167 -50 -179 -39 -3 3 6 20
21 37 14 18 29 44 33 58 12 50 33 92 46 92 6 -1 22 -6 33 -13z m-162 -3362 c5
13 9 13 26 3 11 -7 20 -18 20 -25 0 -6 13 -21 28 -32 24 -17 29 -28 31 -68 1
-26 5 -49 10 -51 10 -3 2 -52 -11 -69 -5 -7 -5 -12 3 -15 13 -4 21 -156 8
-164 -23 -14 16 -152 52 -187 22 -21 23 -28 7 -46 -9 -10 -9 -12 -1 -7 16 9
28 -13 24 -43 -2 -15 1 -21 8 -17 8 5 8 0 1 -19 -7 -19 -5 -37 10 -75 11 -28
24 -74 30 -103 5 -28 15 -82 22 -119 7 -37 21 -77 31 -88 15 -17 23 -40 26
-72 1 -4 8 -5 16 -2 11 5 15 -1 15 -19 0 -20 6 -26 30 -29 16 -2 31 0 33 5 5
15 47 -16 47 -35 0 -44 92 -19 104 28 4 16 11 21 22 17 10 -4 17 2 21 16 4 15
11 20 24 16 10 -3 26 -2 36 4 10 5 33 16 51 23 17 7 32 17 32 23 0 5 12 19 27
29 14 11 23 14 19 8 -8 -14 -5 -15 18 -6 9 3 16 12 16 20 0 8 10 14 21 14 16
0 20 5 16 20 -3 14 0 20 10 20 11 0 14 8 11 31 l-5 30 56 -7 c33 -4 64 -14 77
-25 11 -11 25 -19 32 -19 6 0 17 -8 24 -17 13 -18 36 -33 91 -61 39 -19 48
-43 38 -95 -4 -24 -6 -58 -3 -76 2 -19 0 -31 -7 -31 -6 0 -11 -6 -11 -12 0
-15 -325 -340 -356 -356 -12 -6 -36 -25 -55 -41 -49 -43 -97 -77 -154 -107
-27 -15 -68 -39 -91 -55 -43 -30 -117 -64 -224 -105 -36 -14 -79 -31 -96 -39
-18 -8 -49 -17 -70 -21 -22 -3 -46 -13 -55 -20 -8 -8 -35 -18 -60 -23 -24 -5
-62 -16 -84 -25 -22 -8 -54 -15 -71 -16 -17 0 -49 -6 -70 -14 -22 -7 -88 -21
-149 -30 -60 -10 -146 -24 -190 -33 -89 -17 -341 -21 -570 -9 -147 7 -183 11
-280 27 -33 6 -87 14 -120 19 -55 8 -126 26 -265 66 -30 9 -96 36 -147 60 -98
47 -146 93 -195 186 -14 26 -28 45 -31 42 -3 -3 -4 3 -4 13 1 10 6 21 11 24 5
4 5 24 2 45 -5 24 -10 33 -16 25 -6 -10 -9 -10 -15 -1 -4 6 -4 14 -1 17 3 4 0
13 -7 22 -23 27 -27 50 -11 66 9 8 11 15 5 15 -5 0 -10 8 -11 18 -1 9 -3 52
-5 95 -3 42 -9 85 -14 95 -10 20 -19 73 -26 163 -3 37 -12 84 -21 104 -26 62
-36 196 -15 203 6 2 11 21 11 43 0 28 4 39 15 39 14 0 19 12 16 33 -1 9 13 9
23 0 4 -4 13 -8 19 -9 25 -2 57 -17 57 -25 0 -5 6 -9 14 -9 8 0 17 -7 20 -16
3 -8 10 -13 15 -10 5 3 11 -1 15 -9 3 -8 0 -15 -7 -15 -7 0 3 -10 21 -21 17
-12 32 -25 32 -29 0 -18 102 -111 116 -106 8 3 14 -1 14 -10 0 -12 7 -14 31
-9 17 4 41 2 53 -3 11 -6 42 -18 69 -28 26 -9 47 -19 47 -23 0 -3 29 -7 65 -7
36 -1 94 -7 130 -14 62 -12 64 -12 92 14 15 14 34 26 41 26 20 0 62 31 62 46
0 16 46 38 60 29 18 -11 60 18 60 41 0 17 4 22 15 18 17 -7 19 9 5 36 -8 16
-1 25 50 64 33 25 65 46 70 46 6 0 10 6 10 14 0 14 52 46 74 46 16 0 98 60
173 127 36 32 71 60 77 62 6 2 26 21 46 41 19 20 54 51 78 69 23 18 42 37 42
43 0 6 10 21 23 33 12 12 30 31 39 43 10 12 27 22 38 22 10 0 24 9 30 20 25
47 289 264 332 272 7 2 21 14 32 27 18 21 21 22 32 7 10 -15 12 -15 18 -1z
m-1525 -221 c30 -15 38 -15 96 0 72 18 121 21 129 7 9 -14 77 -22 116 -13 66
16 124 -21 156 -96 17 -41 12 -93 -10 -112 -8 -6 -22 -33 -32 -60 -11 -30 -26
-52 -41 -59 -13 -6 -23 -19 -23 -29 0 -11 -11 -31 -25 -46 -31 -34 -85 -112
-85 -124 0 -17 -49 -97 -72 -119 -31 -28 -95 -63 -116 -63 -78 1 -160 77 -204
187 -94 242 -104 292 -70 364 11 24 25 62 31 84 5 22 13 50 16 63 5 17 12 21
25 17 10 -3 21 -1 25 5 9 15 47 12 84 -6z"/>
<path d="M6610 8863 c0 -22 79 -108 154 -168 53 -42 126 -146 126 -177 0 -10
6 -21 14 -24 8 -3 17 -16 20 -29 4 -15 20 -30 46 -41 22 -10 40 -21 40 -26 0
-4 7 -8 15 -8 9 0 15 9 15 25 0 19 5 25 18 23 11 -2 18 5 20 20 3 21 1 23 -18
17 -15 -5 -20 -4 -16 4 9 13 -24 60 -42 61 -7 0 -11 4 -7 9 3 5 1 12 -5 16 -5
3 -10 14 -10 24 0 9 -13 30 -29 45 -42 41 -65 98 -54 133 8 24 15 28 54 31
112 7 71 31 -66 39 -81 4 -191 21 -252 39 -18 5 -23 2 -23 -13z"/>
<path d="M8800 8798 c-77 -23 -174 -51 -250 -72 -30 -9 -73 -16 -95 -17 -22 0
-65 -8 -95 -18 l-54 -18 36 -12 c50 -17 71 -43 72 -93 1 -35 -3 -43 -19 -46
-47 -9 -82 -71 -56 -97 6 -6 11 -32 13 -59 5 -78 23 -80 105 -14 37 30 93 84
123 119 30 35 112 123 183 194 70 72 127 134 127 137 0 15 -30 14 -90 -4z"/>
</g>
</svg>
